<?xml version="1.0" encoding="UTF-8" standalone="no"?>
<!-- Created with Inkscape (http://www.inkscape.org/) -->

<svg
   width="141.55499mm"
   height="163.435mm"
   viewBox="0 0 141.55499 163.43499"
   version="1.1"
   id="svg1"
   xml:space="preserve"
   inkscape:version="1.3.2 (091e20e, 2023-11-25, custom)"
   sodipodi:docname="Luddite.svg"
   xmlns:inkscape="http://www.inkscape.org/namespaces/inkscape"
   xmlns:sodipodi="http://sodipodi.sourceforge.net/DTD/sodipodi-0.dtd"
   xmlns="http://www.w3.org/2000/svg"
   xmlns:svg="http://www.w3.org/2000/svg"><sodipodi:namedview
     id="namedview1"
     pagecolor="#ffffff"
     bordercolor="#000000"
     borderopacity="0.25"
     inkscape:showpageshadow="2"
     inkscape:pageopacity="0.0"
     inkscape:pagecheckerboard="0"
     inkscape:deskcolor="#d1d1d1"
     inkscape:document-units="mm"
     inkscape:zoom="1.4142136"
     inkscape:cx="119.14749"
     inkscape:cy="339.0577"
     inkscape:window-width="1920"
     inkscape:window-height="1009"
     inkscape:window-x="-8"
     inkscape:window-y="-8"
     inkscape:window-maximized="1"
     inkscape:current-layer="g1" /><defs
     id="defs1" /><g
     inkscape:label="Layer 1"
     inkscape:groupmode="layer"
     id="layer1"><g
       style="fill:#000000"
       id="g2"
       transform="matrix(-0.188509,0.04431954,-0.04431954,-0.188509,125.44877,120.24013)"><g
         id="g1">
	<path
   id="path1"
   d="m 51.292594,478.70347 c 19.604216,3.7168 40.670133,-2.10422 55.883156,-17.32041 0.105,-0.098 0.20069,-0.19681 0.29669,-0.30581 l 56.28333,-65.30093 -10.76927,-57.17473 0.005,0.001 -2.54697,-4.68612 -5.74618,-1.25776 -18.78627,-17.62994 4.8893,-4.53052 -1.2804,-3.82363 0.0432,-0.0556 -0.0542,0.0558 -8.21176,-25.09756 -101.913744,91.57535 c -0.073,0.071 -0.145121,0.1487 -0.224121,0.2187 -24.3448518,24.34588 -24.3440624,63.95939 7.93e-4,88.30921 9.130821,9.12894 20.368716,14.79267 32.131246,17.02278 z m 4.067844,-37.0192 c -4.340947,-0.84102 -8.488071,-2.94247 -11.851803,-6.30354 -8.966946,-8.96094 -8.96537,-23.50395 0.0015,-32.46789 8.969946,-8.96294 36.90229,-22.25493 45.873236,-13.29199 8.966946,8.96394 -4.436735,36.79849 -13.403681,45.75943 -5.606839,5.60557 -13.384386,7.70569 -20.61929,6.30399 z m 152.603652,-57.65847 56.62087,-65.69035 -80.57803,-6.29588 22.05443,43.94788 -4.69036,2.8143 z m -62.39016,-102.50881 124.58654,-9.19719 20.14164,-23.37138 c 1.765,-1.773 14.20337,-0.1201 15.74837,-2.0241 45.49976,17.16694 77.89082,-6.14679 114.46464,-42.71561 26.67482,-26.68682 61.14377,-49.93506 57.89477,-87.59282 -0.368,-4.271 -3.18162,-7.93851 -7.20062,-9.40151 -4.02894,-1.472 -8.54087,-0.46955 -11.57181,2.55645 L 397.62271,171.78067 328.8757,150.01185 307.10678,81.264969 369.12274,19.249931 c 3.035,-3.031982 -6.61493,-7.622353 -8.07687,-11.6443283 -1.477,-4.029976 -6.37783,2.5601733 -10.65783,2.1901738 C 312.72528,6.5507963 302.3434,26.717951 275.66258,53.402789 239.12076,89.947573 214.80316,127.27542 231.9391,172.76312 c -1.873,1.578 -4.04288,12.86287 -5.86588,14.66587 l -84.59691,76.11471 z"
   sodipodi:nodetypes="sccccccccccccccccssccccsccccccccccccccccccccccccccc" />
</g></g><g
       id="g3"
       transform="scale(0.26458333)"><path
         d="m 267.5,28.9 242.5,140 v 280 L 267.5,588.9 25,448.9 v -280 L 267.5,28.9 M 267.5,0 255,7.2 12.5,147.2 0,154.4 v 308.9 l 12.5,7.2 242.5,140 12.5,7.2 12.5,-7.2 242.5,-140 12.5,-7.2 V 154.4 L 522.5,147.2 280,7.2 Z"
         id="path2-3" /></g></g></svg>
