<?xml version="1.0" encoding="UTF-8" standalone="no"?>
<!-- Created with Inkscape (http://www.inkscape.org/) -->

<svg
   version="1.1"
   id="svg1"
   width="800"
   height="600"
   viewBox="0 0 800 600"
   sodipodi:docname="Strelitzia3.svg"
   inkscape:version="1.3.2 (091e20e, 2023-11-25, custom)"
   xmlns:inkscape="http://www.inkscape.org/namespaces/inkscape"
   xmlns:sodipodi="http://sodipodi.sourceforge.net/DTD/sodipodi-0.dtd"
   xmlns="http://www.w3.org/2000/svg"
   xmlns:svg="http://www.w3.org/2000/svg">
  <defs
     id="defs1" />
  <sodipodi:namedview
     id="namedview1"
     pagecolor="#000000"
     bordercolor="#000000"
     borderopacity="0.25"
     inkscape:showpageshadow="2"
     inkscape:pageopacity="0.0"
     inkscape:pagecheckerboard="0"
     inkscape:deskcolor="#d1d1d1"
     inkscape:zoom="0.84187497"
     inkscape:cx="188.86415"
     inkscape:cy="316.55532"
     inkscape:window-width="1920"
     inkscape:window-height="1009"
     inkscape:window-x="-8"
     inkscape:window-y="-8"
     inkscape:window-maximized="1"
     inkscape:current-layer="g1" />
  <g
     inkscape:groupmode="layer"
     inkscape:label="Image"
     id="g1">
    <path
       id="path3"
       style="fill:none;fill-opacity:1;stroke:none;stroke-width:5.3045;stroke-opacity:1"
       d="M 341.77697,7.9344482 C 338.16391,8.5015902 323.75103,227.96058 323.4215,236.87586 c -2.58026,69.80939 52.3122,199.17092 58.02775,208.70992 5.71555,9.53901 5.95998,9.39551 6.26913,9.08891 0.30868,0.30585 0.55171,0.4499 6.26221,-9.07883 5.71049,-9.52873 60.61319,-138.90512 58.03272,-208.72 C 451.67855,227.81907 436.80756,1.4820362 433.49183,8.0750732 414.43024,45.977348 399.37886,83.084018 387.71838,117.20984 376.05787,83.083858 361.00272,45.977568 341.94104,8.0750732 c -0.0518,-0.103017 -0.10672,-0.149628 -0.16407,-0.140625 z"
       sodipodi:nodetypes="cccccsscsc" />
    <path
       id="path4"
       style="fill:none;fill-opacity:1;stroke:none;stroke-width:5.3045;stroke-opacity:1"
       d="m 305.66556,338.71185 c 3.282,10.48335 26.59932,76.98494 20.62969,74.54821 C 297.23433,401.39768 222.00441,297.09799 189.38911,248.69138 159.51073,204.34679 134.26634,110.37867 142.03459,58.335583 143.18143,50.652433 303.65411,332.28684 305.66556,338.71185 Z"
       sodipodi:nodetypes="sssss" />
    <path
       id="path5"
       style="fill:none;fill-opacity:1;stroke:none;stroke-width:5.3045;stroke-opacity:0.993266"
       d="m 231.78715,438.53505 c 4.66025,8.98778 -43.57188,-16.95476 -62.06764,-35.98034 -41.04634,-42.22209 -91.571232,-118.8747 -101.81005,-219.63942 -0.353381,-3.47782 51.4039,33.75668 52.19526,37.427 4.53511,21.0334 19.7609,69.23059 51.00927,115.49534 32.5337,48.16772 56.95855,95.5334 60.67316,102.69742 z"
       sodipodi:nodetypes="ssssss" />
    <path
       id="path15"
       style="fill:none;fill-opacity:1;stroke:none;stroke-width:5.94475;stroke-dasharray:none;stroke-opacity:1"
       inkscape:highlight-color="#fc820f"
       d="m 291.41689,588.01459 -130.3593,0.99714 C 232.83432,482.8104 275.56777,466.51216 389.79765,466.51228 c 114.22985,1.1e-4 156.96406,16.29833 228.7408,122.49963 l -130.35931,-0.99715 c -35.73835,0.0391 -71.47674,0.093 -98.38111,0.0996 -26.90439,-0.006 -62.64278,-0.0607 -98.38114,-0.0998 z"
       sodipodi:nodetypes="ccsccccc" />
    <path
       id="path16"
       style="fill:none;fill-opacity:1;stroke:none;stroke-width:5.3045;stroke-opacity:1"
       d="m 469.77077,338.71201 c -3.282,10.48335 -26.59932,76.98494 -20.62969,74.54821 C 478.202,401.39784 553.43192,297.09815 586.04722,248.69154 615.9256,204.34695 641.16999,110.37883 633.40174,58.335744 632.2549,50.652594 471.78222,332.287 469.77077,338.71201 Z"
       sodipodi:nodetypes="sssss" />
    <path
       id="path17"
       style="fill:none;fill-opacity:1;stroke:none;stroke-width:5.3045;stroke-opacity:0.993266"
       d="m 543.65195,438.53505 c -4.66025,8.98778 43.57188,-16.95476 62.06764,-35.98034 41.04634,-42.22209 91.57123,-118.8747 101.81005,-219.63942 0.35338,-3.47782 -51.4039,33.75668 -52.19526,37.427 -4.53511,21.0334 -19.7609,69.23059 -51.00927,115.49534 -32.5337,48.16772 -56.95855,95.5334 -60.67316,102.69742 z"
       sodipodi:nodetypes="ssssss" />
  </g>
</svg>
