<?xml version="1.0" encoding="UTF-8" standalone="no"?>
<!-- Created with Inkscape (http://www.inkscape.org/) -->

<svg
   version="1.1"
   id="svg1"
   width="800"
   height="600"
   viewBox="0 0 800 600"
   sodipodi:docname="Strelitzia.svg"
   inkscape:version="1.3.2 (091e20e, 2023-11-25, custom)"
   xmlns:inkscape="http://www.inkscape.org/namespaces/inkscape"
   xmlns:sodipodi="http://sodipodi.sourceforge.net/DTD/sodipodi-0.dtd"
   xmlns="http://www.w3.org/2000/svg"
   xmlns:svg="http://www.w3.org/2000/svg">
  <defs
     id="defs1" />
  <sodipodi:namedview
     id="namedview1"
     pagecolor="#000000"
     bordercolor="#000000"
     borderopacity="0.25"
     inkscape:showpageshadow="2"
     inkscape:pageopacity="0.0"
     inkscape:pagecheckerboard="0"
     inkscape:deskcolor="#d1d1d1"
     inkscape:zoom="1.190591"
     inkscape:cx="365.36476"
     inkscape:cy="283.47266"
     inkscape:window-width="1920"
     inkscape:window-height="1009"
     inkscape:window-x="-8"
     inkscape:window-y="-8"
     inkscape:window-maximized="1"
     inkscape:current-layer="g1" />
  <g
     inkscape:groupmode="layer"
     inkscape:label="Image"
     id="g1">
    <path
       id="path1"
       d="m 753.31467,575.60472 -235.66668,0.37903 c -72.5711,0.42349 -145.14242,0.27807 -217.71412,0.19876 l -116.31958,0.88975 C 252.6001,475.00041 291.5568,463.02221 422.17386,468.68461 c 118.73131,12.39157 222.61732,59.64367 331.14081,106.92011 z"
       sodipodi:nodetypes="cccccc"
       inkscape:highlight-color="#fc820f"
       style="fill:#fc820f;fill-opacity:1;stroke:#ffffff;stroke-width:5.3045;stroke-dasharray:none;stroke-opacity:1" />
    <path
       id="path2"
       style="fill:#fc820f;fill-opacity:1;stroke:#ffffff;stroke-width:5.3045;stroke-opacity:1"
       d="M 538.68562,312.22149 C 522.7445,404.11738 489.92451,429.67005 476.32768,458.27031 460.85541,444.67346 464.13741,346.91688 463.19969,327.2249 475.38997,317.84777 607.53255,128.52267 610.88954,139.91667 602.04982,162.1704 549.21531,256.03675 538.68562,312.22149 Z"
       sodipodi:nodetypes="ccccc" />
    <path
       id="path3"
       style="fill:#fc820f;fill-opacity:1;stroke:#ffffff;stroke-width:5.3045;stroke-opacity:1"
       d="m 466.48169,234.15684 c 2.81313,76.10948 -62.84591,223.40785 -64.93664,218.01834 -4.26081,-10.98348 -31.28919,-152.8936 -32.58554,-181.91638 -1.53072,-34.26935 19.11054,-145.81441 79.00233,-264.903996 3.31573,-6.5930434 18.18509,219.745236 18.51985,228.802036 z"
       sodipodi:nodetypes="sssss" />
    <path
       id="path4"
       style="fill:#fc820f;fill-opacity:1;stroke:#ffffff;stroke-width:5.3045;stroke-opacity:1"
       d="m 305.66386,338.71185 c 3.282,10.48335 26.59932,76.98494 20.62969,74.54821 C 297.23263,401.39768 222.00271,297.09799 189.38741,248.69138 159.50903,204.34679 134.26464,110.37867 142.03289,58.335583 143.17973,50.652433 303.65241,332.28684 305.66386,338.71185 Z"
       sodipodi:nodetypes="sssss" />
    <path
       id="path5"
       style="fill:#fc820f;fill-opacity:1;stroke:#ffffff;stroke-width:5.3045;stroke-opacity:0.993266"
       d="m 251.78696,382.46267 c 4.66025,8.98778 -43.57188,-16.95476 -62.06764,-35.98034 -41.04634,-42.22209 -91.571228,-118.8747 -101.810046,-219.63942 -0.353381,-3.47782 51.403896,33.75668 52.195256,37.427 4.53511,21.0334 19.7609,69.23059 51.00927,115.49534 32.5337,48.16772 56.95855,95.5334 60.67316,102.69742 z"
       sodipodi:nodetypes="ssssss" />
  </g>
</svg>
