<?xml version="1.0" encoding="UTF-8"?>
<svg version="1.1" viewBox="0 0 800 600" xmlns="http://www.w3.org/2000/svg">
<g stroke="#000" stroke-opacity=".99776">
<path d="m341.78 7.9344c-3.6131 0.56714-18.026 220.03-18.355 228.94-2.5803 69.809 52.312 199.17 58.028 208.71 5.7156 9.539 5.96 9.3955 6.2691 9.0889 0.30868 0.30585 0.55171 0.4499 6.2622-9.0788 5.7105-9.5287 60.613-138.91 58.033-208.72-0.33476-9.0568-15.206-235.39-18.521-228.8-19.062 37.902-34.113 75.009-45.773 109.13-11.661-34.126-26.716-71.232-45.777-109.13-0.0518-0.10302-0.10672-0.14963-0.16407-0.14062z" stroke-width="5.3045"/>
<path d="m305.67 338.71c3.282 10.483 26.599 76.985 20.63 74.548-29.061-11.862-104.29-116.16-136.91-164.57-29.878-44.345-55.123-138.31-47.355-190.36 1.1468-7.6832 161.62 273.95 163.63 280.38z" stroke-width="5.3045"/>
<path d="m231.79 438.54c4.6602 8.9878-43.572-16.955-62.068-35.98-41.046-42.222-91.571-118.87-101.81-219.64-0.35338-3.4778 51.404 33.757 52.195 37.427 4.5351 21.033 19.761 69.231 51.009 115.5 32.534 48.168 56.959 95.533 60.673 102.7z" stroke-width="5.3045"/>
<path d="m291.42 588.01-130.36 0.99714c71.777-106.2 114.51-122.5 228.74-122.5 114.23 1.1e-4 156.96 16.298 228.74 122.5l-130.36-0.99715c-35.738 0.0391-71.477 0.093-98.381 0.0996-26.904-6e-3 -62.643-0.0607-98.381-0.0998z" stroke-width="5.9448"/>
<path d="m469.77 338.71c-3.282 10.483-26.599 76.985-20.63 74.548 29.061-11.862 104.29-116.16 136.91-164.57 29.878-44.345 55.123-138.31 47.355-190.36-1.1468-7.6832-161.62 273.95-163.63 280.38z" stroke-width="5.3045"/>
<path d="m543.65 438.54c-4.6602 8.9878 43.572-16.955 62.068-35.98 41.046-42.222 91.571-118.87 101.81-219.64 0.35338-3.4778-51.404 33.757-52.195 37.427-4.5351 21.033-19.761 69.231-51.009 115.5-32.534 48.168-56.959 95.533-60.673 102.7z" stroke-width="5.3045"/>
</g>
</svg>
